<svg xmlns="http://www.w3.org/2000/svg" viewBox="0 0 64 64" role="img" aria-label="Sách giáo khoa">
  <rect width="64" height="64" rx="15" fill="#f5efe2"/>
  <circle cx="32" cy="32" r="24" fill="#fffaf0" opacity=".82"/>

  <g transform="rotate(-8 24 34)">
    <rect x="10" y="20" width="17" height="30" rx="2.6" fill="#3f7fb8"/>
    <rect x="13" y="20" width="3" height="30" fill="#2f5f8d" opacity=".55"/>
    <rect x="18" y="25" width="6" height="2" rx="1" fill="#fffaf0" opacity=".72"/>
    <rect x="18" y="30" width="5" height="2" rx="1" fill="#fffaf0" opacity=".48"/>
  </g>

  <g transform="rotate(2 33 32)">
    <rect x="24" y="15" width="18" height="36" rx="2.8" fill="#d94f3f"/>
    <rect x="27" y="15" width="3" height="36" fill="#a83b31" opacity=".5"/>
    <rect x="33" y="21" width="6" height="2" rx="1" fill="#fffaf0" opacity=".74"/>
    <rect x="33" y="26" width="5" height="2" rx="1" fill="#fffaf0" opacity=".5"/>
  </g>

  <g transform="rotate(10 44 34)">
    <rect x="38" y="18" width="17" height="32" rx="2.6" fill="#e4b84b"/>
    <rect x="41" y="18" width="3" height="32" fill="#b98a2f" opacity=".46"/>
    <rect x="47" y="24" width="5" height="2" rx="1" fill="#fffaf0" opacity=".72"/>
    <rect x="47" y="29" width="4" height="2" rx="1" fill="#fffaf0" opacity=".5"/>
  </g>

  <path d="M10 51.5c7.5 2.2 31.7 2.5 44 0" fill="none" stroke="#17130f" stroke-opacity=".13" stroke-width="2.2" stroke-linecap="round"/>
</svg>
